<?xml version="1.0" encoding="UTF-8"?>
<svg width="21px" height="20px" viewBox="0 0 21 20" version="1.1" xmlns="http://www.w3.org/2000/svg" xmlns:xlink="http://www.w3.org/1999/xlink">
    <!-- Generator: Sketch 51.2 (57519) - http://www.bohemiancoding.com/sketch -->
    <title>层级_o</title>
    <desc>Created with Sketch.</desc>
    <defs></defs>
    <g id="图谱功能" stroke="none" stroke-width="1" fill="none" fill-rule="evenodd">
        <g id="Desktop-HD" transform="translate(-160.000000, -709.000000)" fill-rule="nonzero">
            <g id="Group-9-Copy-3" transform="translate(154.000000, 703.000000)">
                <g id="层级_o" transform="translate(4.000000, 4.000000)">
                    <rect id="Rectangle-path" fill="#000000" opacity="0" x="0" y="0" width="24" height="24"></rect>
                    <path d="M6.18434325,13.3095243 L7.49341514,14.0949675 L4.08982819,15.9276681 L12.206074,20.640327 L20.3223199,15.9276681 L16.9187329,13.9640603 L18.2278048,13.1786171 L22.1935613,15.4919751 C22.4320873,15.6311152 22.5126554,15.9372741 22.3735153,16.1758001 C22.3294054,16.2514169 22.2662154,16.3141275 22.1902648,16.3576602 L12.454713,21.9377935 C12.3007057,22.026066 12.1114423,22.026066 11.957435,21.9377935 L2.24037591,16.3682596 C2.00079719,16.2309401 1.91789973,15.9254037 2.05521924,15.685825 C2.1005216,15.6067869 2.16655709,15.5416277 2.24619342,15.4973853 L6.18434325,13.3095243 Z M22.3219349,8.51193089 L12.5880469,14.2098166 C12.4328488,14.3006642 12.2408192,14.3011701 12.0851447,14.2111415 L2.22346949,8.50800398 C1.98442291,8.36976018 1.90270612,8.0639059 2.04094992,7.82485933 C2.08509425,7.74852643 2.14864023,7.68522541 2.22514306,7.64137623 L11.9589351,2.06225152 C12.1121354,1.97444162 12.3002921,1.97395114 12.4539481,2.06096115 L22.3157194,7.64533764 C22.5560107,7.78140625 22.6405,8.0865063 22.5044314,8.32679767 C22.4609863,8.40351989 22.3980261,8.46738974 22.3219349,8.51193089 Z M3.95093765,8.0721166 L12.206074,12.8654216 L20.4612104,8.0721166 L12.206074,3.41195898 L3.95093765,8.0721166 Z" id="Shape" fill="#1890FF"></path>
                </g>
            </g>
        </g>
    </g>
</svg>