<?xml version="1.0" encoding="UTF-8"?>
<svg width="20px" height="22px" viewBox="0 0 20 22" version="1.1" xmlns="http://www.w3.org/2000/svg" xmlns:xlink="http://www.w3.org/1999/xlink">
    <!-- Generator: Sketch 51.2 (57519) - http://www.bohemiancoding.com/sketch -->
    <title>标记</title>
    <desc>Created with Sketch.</desc>
    <defs></defs>
    <g id="图谱功能" stroke="none" stroke-width="1" fill="none" fill-rule="evenodd">
        <g id="Desktop-HD" transform="translate(-288.000000, -708.000000)" fill-rule="nonzero">
            <g id="Group-2-Copy-3" transform="translate(282.000000, 703.000000)">
                <g id="标记" transform="translate(4.000000, 4.000000)">
                    <rect id="Rectangle-path" fill="#000000" opacity="0" x="0" y="0" width="24" height="24"></rect>
                    <path d="M17.493375,6.720375 L21.538125,10.765125 C21.820125,11.047125 21.820125,11.504625 21.538125,11.786625 C21.3915,11.93325 21.197625,12 21.005625,11.994 C21.003375,11.99625 21.001875,11.99775 21,12 L3.75,12 L3.75,21.75 C3.75,22.164375 3.414375,22.5 3,22.5 C2.585625,22.5 2.25,22.164375 2.25,21.75 L2.25,2.25 C2.25,1.835625 2.585625,1.5 3,1.5 L21,1.5 C21.00225,1.50225 21.00375,1.50375 21.006,1.505625 C21.183,1.50975 21.358875,1.5765 21.493875,1.7115 C21.7725,1.98975 21.7725,2.44125 21.493875,2.7195 L17.493375,6.720375 Z M3.75,3 L3.75,10.5 L19.229625,10.5 L15.997875,7.26825 C15.986625,7.2585 15.972375,7.25475 15.9615,7.243875 C15.820875,7.10325 15.75225,6.918375 15.75375,6.733875 C15.75075,6.54525 15.819375,6.355875 15.963375,6.211875 C15.982875,6.192375 16.008,6.184875 16.029,6.168375 L19.197375,3 L3.75,3 Z" id="Shape" fill="#1890FF"></path>
                </g>
            </g>
        </g>
    </g>
</svg>