<?xml version="1.0" encoding="UTF-8"?>
<svg width="28px" height="28px" viewBox="0 0 28 28" version="1.1" xmlns="http://www.w3.org/2000/svg" xmlns:xlink="http://www.w3.org/1999/xlink">
    <!-- Generator: Sketch 51.1 (57501) - http://www.bohemiancoding.com/sketch -->
    <title>Group 8 Copy 11</title>
    <desc>Created with Sketch.</desc>
    <defs>
        <polygon id="path-1" points="0.0129108247 0.00824064171 10.2686582 0.00824064171 10.2686582 11.9108329 0.0129108247 11.9108329"></polygon>
    </defs>
    <g id="UI-规范" stroke="none" stroke-width="1" fill="none" fill-rule="evenodd">
        <g id="icon" transform="translate(-218.000000, -472.000000)">
            <g id="Group-8-Copy" transform="translate(220.000000, 475.000000)">
                <path d="M5.75503866,11.2614088 C5.38609021,11.0317778 4.94345876,11.0317778 4.50070876,11.2614088 L0.590293814,13.6342217 C0.221345361,13.8638527 0,14.246612 0,14.7058741 L0,19.3750586 C0,19.8343206 0.221345361,20.2170184 0.590293814,20.446711 L4.50070876,22.8195238 C4.86965722,23.0491548 5.31234794,23.0491548 5.75503866,22.8195238 L9.66545361,20.446711 C10.0344021,20.2170184 10.2557474,19.8343206 10.2557474,19.3750586 L10.2557474,14.7058741 C10.2557474,14.246612 10.0344021,13.8638527 9.66545361,13.6342217 L5.75503866,11.2614088 Z" id="Fill-1" fill="#4FA2F1"></path>
                <path d="M18.4663384,11.2614088 C18.0973899,11.0317778 17.6547585,11.0317778 17.2120085,11.2614088 L13.3015936,13.6342217 C12.9326451,13.8638527 12.7112997,14.246612 12.7112997,14.7058741 L12.7112997,19.3750586 C12.7112997,19.8343206 12.9326451,20.2170184 13.3015936,20.446711 L17.2120085,22.8195238 C17.580957,23.0491548 18.0236477,23.0491548 18.4663384,22.8195238 L22.3768126,20.446711 C22.7457018,20.2170184 22.9670472,19.8343206 22.9670472,19.3750586 L22.9670472,14.7058741 C22.9670472,14.246612 22.7457018,13.8638527 22.3768126,13.6342217 L18.4663384,11.2614088 Z" id="Fill-3" fill="#4FA2F1"></path>
                <g id="Group-7" transform="translate(6.342784, 0.053257)">
                    <mask id="mask-2" fill="white">
                        <use xlink:href="#path-1"></use>
                    </mask>
                    <g id="Clip-6"></g>
                    <path d="M5.76789021,0.180433155 C5.39894175,-0.049197861 4.95631031,-0.049197861 4.51361959,0.180433155 L0.603145361,2.55330749 C0.234196907,2.7829385 0.0129108247,3.16563636 0.0129108247,3.6248984 L0.0129108247,8.29414439 C0.0129108247,8.75334492 0.234196907,9.13610428 0.603145361,9.36573529 L4.51361959,11.7386096 C4.88250876,11.9682406 5.32519948,11.9682406 5.76789021,11.7386096 L9.67836443,9.36573529 C10.0472536,9.13610428 10.2686582,8.75334492 10.2686582,8.29414439 L10.2686582,3.6248984 C10.2686582,3.16563636 10.0472536,2.7829385 9.67836443,2.55330749 L5.76789021,0.180433155 Z" id="Fill-5" fill="#4FA2F1" mask="url(#mask-2)"></path>
                </g>
            </g>
        </g>
    </g>
</svg>