<?xml version="1.0" encoding="UTF-8"?>
<svg width="28px" height="28px" viewBox="0 0 28 28" version="1.1" xmlns="http://www.w3.org/2000/svg" xmlns:xlink="http://www.w3.org/1999/xlink">
    <!-- Generator: Sketch 51.1 (57501) - http://www.bohemiancoding.com/sketch -->
    <title>Group 8 Copy 9</title>
    <desc>Created with Sketch.</desc>
    <defs>
        <polygon id="path-1" points="6.15384615e-06 6.08433613e-06 23.9473231 6.08433613e-06 23.9473231 22.9871614 6.15384615e-06 22.9871614"></polygon>
    </defs>
    <g id="UI-规范" stroke="none" stroke-width="1" fill="none" fill-rule="evenodd">
        <g id="icon" transform="translate(-306.000000, -472.000000)">
            <g id="Group-3-Copy-2" transform="translate(308.000000, 475.000000)">
                <mask id="mask-2" fill="white">
                    <use xlink:href="#path-1"></use>
                </mask>
                <g id="Clip-2"></g>
                <path d="M17.4240677,22.9871675 C15.5713292,22.9871675 14.0639446,21.496731 14.0639446,19.6647627 C14.0639446,19.0524638 14.2364985,18.4520299 14.5561908,17.933678 L12.6814831,15.2952495 C12.4598215,15.3401542 12.2336062,15.36285 12.0048677,15.36285 C11.7670831,15.36285 11.5320677,15.3383897 11.3022831,15.2899558 L9.52911385,17.8699108 C9.87489846,18.4024399 10.0616062,19.0252653 10.0616062,19.6647627 C10.0616062,21.496731 8.55428308,22.9871675 6.70148308,22.9871675 C4.84862154,22.9871675 3.34129846,21.496731 3.34129846,19.6647627 C3.34129846,17.8327944 4.84862154,16.3423579 6.70148308,16.3423579 C6.90652923,16.3423579 7.10960615,16.3606119 7.30911385,16.3967548 L9.12603692,13.7532759 C8.89188308,13.367813 8.73846769,12.9375061 8.67631385,12.4917442 L5.96099077,11.7286675 C5.32696,12.4982548 4.38431385,12.9461463 3.36012923,12.9461463 C1.50739077,12.9461463 6.15384615e-06,11.4557706 6.15384615e-06,9.62386323 C6.15384615e-06,7.79189497 1.50739077,6.30151931 3.36012923,6.30151931 C5.06271385,6.30151931 6.47354462,7.56013042 6.69108308,9.18576799 L9.39612923,9.94592407 C9.73379077,9.53393201 10.1641292,9.20937645 10.6542831,8.9972045 L10.6816062,6.34106958 C9.51009846,5.80519392 8.72480615,4.62178915 8.72480615,3.32235 C8.72480615,1.49044259 10.2321908,6.08433613e-06 12.0849908,6.08433613e-06 C13.9377908,6.08433613e-06 15.4451138,1.49044259 15.4451138,3.32235 C15.4451138,4.69030238 14.6058523,5.89682884 13.3547138,6.39948227 L13.3280677,8.9857045 C13.8065908,9.18801931 14.2305292,9.49760661 14.5678831,9.89140556 L17.2612985,9.14986852 C17.4953292,7.54285 18.90056,6.30151931 20.5872062,6.30151931 C22.4399446,6.30151931 23.9473292,7.79189497 23.9473292,9.62386323 C23.9473292,11.4557706 22.4399446,12.9461463 20.5872062,12.9461463 C19.5652985,12.9461463 18.5974215,12.4781145 17.9647446,11.7002521 L15.3427138,12.4220749 C15.2863446,12.9021542 15.1244985,13.3652574 14.8697292,13.776641 L16.7417908,16.4111145 C16.9652369,16.3654188 17.19336,16.3423579 17.4240677,16.3423579 C19.2768677,16.3423579 20.7842523,17.8327944 20.7842523,19.6647627 C20.7842523,21.496731 19.2768677,22.9871675 17.4240677,22.9871675" id="Fill-1" fill="#C3CACF" mask="url(#mask-2)"></path>
            </g>
        </g>
    </g>
</svg>