<?xml version="1.0" encoding="UTF-8"?>
<svg width="22px" height="22px" viewBox="0 0 22 22" version="1.1" xmlns="http://www.w3.org/2000/svg" xmlns:xlink="http://www.w3.org/1999/xlink">
    <!-- Generator: Sketch 51.2 (57519) - http://www.bohemiancoding.com/sketch -->
    <title>机构关系</title>
    <desc>Created with Sketch.</desc>
    <defs></defs>
    <g id="图谱功能" stroke="none" stroke-width="1" fill="none" fill-rule="evenodd">
        <g id="Desktop-HD" transform="translate(-223.000000, -559.000000)" fill-rule="nonzero">
            <g id="Group-Copy-2" transform="translate(218.000000, 554.000000)">
                <g id="机构关系" transform="translate(4.000000, 4.000000)">
                    <rect id="Rectangle-path" fill="#000000" opacity="0" x="0" y="0" width="24" height="24"></rect>
                    <path d="M15.8039062,2.859375 L15.8039062,8.484375 L8.30390625,8.484375 L8.30390625,2.859375 L15.8039062,2.859375 Z M21.2671875,16.21875 L21.2671875,21.140625 L14.4703125,21.140625 L14.4703125,16.21875 L21.2671875,16.21875 Z M9.5296875,16.21875 L9.5296875,21.140625 L2.7328125,21.140625 L2.7328125,16.21875 L9.5296875,16.21875 Z M16.4757813,1.6875 L7.63203125,1.6875 C7.35588888,1.6875 7.13203125,1.91135763 7.13203125,2.1875 L7.13203125,9.15625 C7.13203125,9.43239237 7.35588888,9.65625 7.63203125,9.65625 L11.4679687,9.65625 L11.4679687,11.775 L6.0453125,11.775 C5.76917013,11.775 5.5453125,11.9988576 5.5453125,12.275 L5.5453125,15.046875 L2.0609375,15.046875 C1.78479513,15.046875 1.5609375,15.2707326 1.5609375,15.546875 L1.5609375,21.8125 C1.5609375,22.0886424 1.78479513,22.3125 2.0609375,22.3125 L10.2015625,22.3125 C10.4777049,22.3125 10.7015625,22.0886424 10.7015625,21.8125 L10.7015625,15.046875 L6.7171875,15.046875 L6.7171875,13.4445312 C6.7171875,13.1683889 6.94104513,12.9445312 7.2171875,12.9445312 L16.7804688,12.9445312 C17.0566111,12.9445312 17.2804688,13.1683889 17.2804687,13.4445312 L17.2804688,15.046875 L13.7960937,15.046875 C13.5199514,15.046875 13.2960937,15.2707326 13.2960937,15.546875 L13.2960937,21.8125 C13.2960937,22.0886424 13.5199514,22.3125 13.7960937,22.3125 L21.9367188,22.3125 C22.2128611,22.3125 22.4367188,22.0886424 22.4367188,21.8125 L22.4367188,15.546875 C22.4367188,15.2707326 22.2128611,15.046875 21.9367188,15.046875 L18.4523438,15.046875 L18.4523438,12.275 C18.4523438,11.9988576 18.2284861,11.775 17.9523438,11.775 L12.6398437,11.775 L12.6398437,9.65625 L16.4757813,9.65625 C16.7519236,9.65625 16.9757813,9.43239237 16.9757813,9.15625 L16.9757813,2.1875 C16.9757813,1.91135763 16.7519236,1.6875 16.4757813,1.6875 Z" id="Shape" fill="#0C85F5"></path>
                </g>
            </g>
        </g>
    </g>
</svg>