<?xml version="1.0" encoding="UTF-8"?>
<svg width="28px" height="28px" viewBox="0 0 28 28" version="1.1" xmlns="http://www.w3.org/2000/svg" xmlns:xlink="http://www.w3.org/1999/xlink">
    <!-- Generator: Sketch 51.1 (57501) - http://www.bohemiancoding.com/sketch -->
    <title>Group 8 Copy 8</title>
    <desc>Created with Sketch.</desc>
    <defs>
        <polygon id="path-1" points="0.01775625 0.008625 12.991375 0.008625 12.991375 12.9822687 0.01775625 12.9822687"></polygon>
    </defs>
    <g id="UI-规范" stroke="none" stroke-width="1" fill="none" fill-rule="evenodd">
        <g id="icon" transform="translate(-350.000000, -472.000000)">
            <g id="Group-17" transform="translate(353.000000, 473.000000)">
                <g id="Group-3" transform="translate(9.000000, 3.000000)">
                    <mask id="mask-2" fill="white">
                        <use xlink:href="#path-1"></use>
                    </mask>
                    <g id="Clip-2"></g>
                </g>
                <path d="M2.48668028,20 C1.99972029,20 1.54682366,19.7074589 1.30464338,19.2366024 C0.451163671,17.5770975 0,15.683463 0,13.760351 C0,11.8124729 0.462969418,9.89582413 1.33881506,8.21759369 C2.20745811,6.55325639 3.45940887,5.16484886 4.95938863,4.20247736 C5.16582674,4.07000933 5.4003712,4 5.63762339,4 C6.12398768,4 6.57661354,4.29187667 6.81895628,4.76176669 C7.19327429,5.48771326 6.96836939,6.41813054 6.31753695,6.8357703 C4.10076421,8.25824622 2.72366171,10.9115936 2.72366171,13.760351 C2.72366171,15.1537721 3.0499444,16.524783 3.66720085,17.7250896 C3.84818621,18.0769483 3.89551751,18.4864334 3.80031336,18.8780991 C3.70516337,19.2697043 3.47906706,19.596495 3.16356118,19.7983683 C2.95750215,19.9302323 2.72344509,20 2.48668028,20" id="Fill-4" fill="#C3CACF"></path>
                <path d="M10.2848838,25 C8.33807935,25 6.4246015,24.5339684 4.75146096,23.6523619 C4.02972587,23.2718946 3.78510975,22.4321449 4.20612188,21.7803973 C4.4768328,21.3614478 4.97872073,21.1012169 5.51610481,21.1012169 C5.78332035,21.1012169 6.04704052,21.1657167 6.27875991,21.2877493 C7.4891246,21.9255083 8.87437866,22.2625403 10.2848838,22.2625403 C11.6864095,22.2625403 13.0658178,21.9286653 14.2738322,21.296948 C15.4723246,20.6701839 16.4751965,19.765499 17.1739706,18.6805956 C17.4442596,18.2608297 17.9465091,18 18.4847369,18 C18.7514101,18 19.0145879,18.0642277 19.2459457,18.1857704 C19.595845,18.3695813 19.8455234,18.665464 19.9489986,19.0189339 C20.0524738,19.3724039 19.9973915,19.7411143 19.7938159,20.0571362 C18.8301163,21.5532056 17.4462484,22.8012908 15.7916092,23.6664593 C14.1230488,24.5388671 12.2189121,25 10.2848838,25" id="Fill-6" fill="#C3CACF"></path>
                <path d="M14.3159727,12.1782032 C12.3691683,12.1782032 10.4556904,11.7121716 8.78254987,10.8305651 C8.06081478,10.4500978 7.81619866,9.61034817 8.23721079,8.95860057 C8.50792172,8.53965107 9.00980964,8.27942013 9.54719372,8.27942013 C9.81440927,8.27942013 10.0781294,8.34391996 10.3098488,8.46595254 C11.5202135,9.10371157 12.9054676,9.44074357 14.3159727,9.44074357 C15.7174984,9.44074357 17.0969067,9.10686852 18.3049211,8.47515125 C19.5034135,7.84838713 20.5062854,6.94370224 21.2050595,5.85879885 C21.4753485,5.4390329 21.9775981,5.17820323 22.5158259,5.17820323 C22.782499,5.17820323 23.0456768,5.2424309 23.2770346,5.36397361 C23.6269339,5.54778451 23.8766123,5.84366725 23.9800875,6.19713718 C24.0835627,6.5506071 24.0284804,6.91931749 23.8249048,7.23533942 C22.8612053,8.73140878 21.4773373,9.979494 19.8226981,10.8446625 C18.1541377,11.7170703 16.250001,12.1782032 14.3159727,12.1782032" id="Fill-6-Copy" fill="#C3CACF" transform="translate(16.031089, 8.678203) rotate(-120.000000) translate(-16.031089, -8.678203) "></path>
                <path d="M10.5000699,19 C7.46238699,19 5,16.537613 5,13.5000699 C5,10.4624569 7.46238699,8 10.5000699,8 C13.5375431,8 16,10.4624569 16,13.5000699 C16,16.537613 13.5375431,19 10.5000699,19" id="Fill-8" fill="#C3CACF"></path>
            </g>
        </g>
    </g>
</svg>