<?xml version="1.0" encoding="UTF-8"?>
<svg width="22px" height="22px" viewBox="0 0 22 22" version="1.1" xmlns="http://www.w3.org/2000/svg" xmlns:xlink="http://www.w3.org/1999/xlink">
    <!-- Generator: Sketch 51.2 (57519) - http://www.bohemiancoding.com/sketch -->
    <title>框选</title>
    <desc>Created with Sketch.</desc>
    <defs></defs>
    <g id="图谱功能" stroke="none" stroke-width="1" fill="none" fill-rule="evenodd">
        <g id="Desktop-HD" transform="translate(-415.000000, -559.000000)" fill-rule="nonzero">
            <g id="Group-4-Copy-2" transform="translate(410.000000, 554.000000)">
                <g id="框选" transform="translate(4.000000, 4.000000)">
                    <rect id="Rectangle-path" fill="#000000" opacity="0" x="0" y="0" width="24" height="24"></rect>
                    <path d="M22.3007812,6.8875 L22.3007812,2.2625 C22.3007812,1.98635763 22.0769236,1.7625 21.8007812,1.7625 L17.1757812,1.7625 C16.8996389,1.7625 16.6757812,1.98635763 16.6757812,2.2625 L16.6757812,3.9890625 L7.32421875,3.9890625 L7.32421875,2.2625 C7.32421875,1.98635763 7.10036112,1.7625 6.82421875,1.7625 L2.19921875,1.7625 C1.92307638,1.7625 1.69921875,1.98635763 1.69921875,2.2625 L1.69921875,6.8875 C1.69921875,7.16364237 1.92307638,7.3875 2.19921875,7.3875 L3.92578125,7.3875 L3.92578125,16.6125 L2.19921875,16.6125 C1.92307638,16.6125 1.69921875,16.8363576 1.69921875,17.1125 L1.69921875,21.7375 C1.69921875,22.0136424 1.92307638,22.2375 2.19921875,22.2375 L6.82421875,22.2375 C7.10036112,22.2375 7.32421875,22.0136424 7.32421875,21.7375 L7.32421875,20.0109375 L16.6757812,20.0109375 L16.6757812,21.7375 C16.6757813,22.0136424 16.8996389,22.2375 17.1757812,22.2375 L21.8007812,22.2375 C22.0769236,22.2375 22.3007812,22.0136424 22.3007812,21.7375 L22.3007812,17.1125 C22.3007812,16.8363576 22.0769236,16.6125 21.8007812,16.6125 L20.0742188,16.6125 L20.0742188,7.3875 L21.8007812,7.3875 C22.0769236,7.3875 22.3007812,7.16364237 22.3007812,6.8875 Z M17.8476562,2.934375 L21.1289062,2.934375 L21.1289062,6.215625 L17.8476562,6.215625 L17.8476562,2.934375 Z M2.87109375,6.215625 L2.87109375,2.934375 L6.15234375,2.934375 L6.15234375,6.215625 L2.87109375,6.215625 Z M6.15234375,21.065625 L2.87109375,21.065625 L2.87109375,17.784375 L6.15234375,17.784375 L6.15234375,21.065625 Z M21.1289062,17.784375 L21.1289062,21.065625 L17.8476562,21.065625 L17.8476562,17.784375 L21.1289062,17.784375 Z M18.9023438,16.6125 L16.6757812,16.6125 L16.6757812,18.8390625 L7.32421875,18.8390625 L7.32421875,16.6125 L5.09765625,16.6125 L5.09765625,7.3875 L7.32421875,7.3875 L7.32421875,5.1609375 L16.6757812,5.1609375 L16.6757812,7.3875 L18.9023438,7.3875 L18.9023438,16.6125 Z" id="Shape" fill="#0C85F5"></path>
                </g>
            </g>
        </g>
    </g>
</svg>