<?xml version="1.0" encoding="UTF-8"?>
<svg width="28px" height="28px" viewBox="0 0 28 28" version="1.1" xmlns="http://www.w3.org/2000/svg" xmlns:xlink="http://www.w3.org/1999/xlink">
    <!-- Generator: Sketch 51.1 (57501) - http://www.bohemiancoding.com/sketch -->
    <title>Group 8 Copy 10</title>
    <desc>Created with Sketch.</desc>
    <defs>
        <polygon id="path-1" points="0 1.20412516e-05 23.9417656 1.20412516e-05 23.9417656 22.9548429 0 22.9548429"></polygon>
    </defs>
    <g id="UI-规范" stroke="none" stroke-width="1" fill="none" fill-rule="evenodd">
        <g id="icon" transform="translate(-263.000000, -472.000000)">
            <g id="Group-3-Copy" transform="translate(265.000000, 475.000000)">
                <mask id="mask-2" fill="white">
                    <use xlink:href="#path-1"></use>
                </mask>
                <g id="Clip-2"></g>
                <path d="M21.5768738,16.3064702 L21.5768738,13.6385304 C21.5768738,13.001033 21.0741905,12.4823288 20.4562354,12.4823288 L12.9342404,12.4823288 L12.9342404,10.9453026 C15.3966045,10.3932424 17.2374224,8.18259319 17.2374224,5.53909843 C17.2374224,2.4799178 14.7722454,1.20412516e-05 11.7313676,1.20412516e-05 C8.69042993,1.20412516e-05 6.22525287,2.4799178 6.22525287,5.53909843 C6.22525287,8.23286806 8.13681397,10.4771141 10.6696219,10.9749257 L10.6696219,12.477211 L3.33202594,12.477211 C2.71131771,12.477211 2.20630025,12.995855 2.20630025,13.6332921 L2.20630025,16.3612005 C0.918140648,16.8419126 -2.39401496e-05,18.0890304 -2.39401496e-05,19.5521796 C-2.39401496e-05,21.4314361 1.51437007,22.954855 3.3823601,22.954855 C5.25040998,22.954855 6.76474414,21.4314361 6.76474414,19.5521796 C6.76474414,18.0571796 5.80594115,16.7883262 4.47349227,16.3315775 L4.47349227,14.7920225 L10.6696219,14.7920225 L10.6696219,16.4108733 C9.44759701,16.9237974 8.58850474,18.1368969 8.58850474,19.5521796 C8.58850474,21.4314361 10.1028988,22.954855 11.9708888,22.954855 C13.8389387,22.954855 15.3532728,21.4314361 15.3532728,19.5521796 C15.3532728,18.0097948 14.3327641,16.7078262 12.9342404,16.290334 L12.9342404,14.7920225 L19.3174025,14.7920225 L19.3174025,16.3873916 C18.0641357,16.8855644 17.1770334,18.1142581 17.1770334,19.5521796 C17.1770334,21.4314361 18.6914274,22.954855 20.5594175,22.954855 C22.4274673,22.954855 23.9418015,21.4314361 23.9418015,19.5521796 C23.9418015,18.0296639 22.9476868,16.7409414 21.5768738,16.3064702" id="Fill-1" fill="#4FA2F1" mask="url(#mask-2)"></path>
            </g>
        </g>
    </g>
</svg>
